<?xml version="1.0" encoding="UTF-8" standalone="no"?>
<svg
   viewBox="0 0 90 105.13892"
   shape-rendering="geometricPrecision"
   version="1.1"
   id="svg3"
   sodipodi:docname="gemini-svg.svg"
   width="90"
   height="105.13892"
   inkscape:version="1.4.2 (f4327f4, 2025-05-13)"
   xmlns:inkscape="http://www.inkscape.org/namespaces/inkscape"
   xmlns:sodipodi="http://sodipodi.sourceforge.net/DTD/sodipodi-0.dtd"
   xmlns="http://www.w3.org/2000/svg"
   xmlns:svg="http://www.w3.org/2000/svg">
  <sodipodi:namedview
     id="namedview3"
     pagecolor="#505050"
     bordercolor="#ffffff"
     borderopacity="1"
     inkscape:showpageshadow="0"
     inkscape:pageopacity="0"
     inkscape:pagecheckerboard="1"
     inkscape:deskcolor="#505050"
     showgrid="false"
     inkscape:zoom="4.2466667"
     inkscape:cx="40.620094"
     inkscape:cy="53.571429"
     inkscape:window-width="1366"
     inkscape:window-height="705"
     inkscape:window-x="-8"
     inkscape:window-y="-8"
     inkscape:window-maximized="1"
     inkscape:current-layer="Isotipo" />
  <defs
     id="defs1">
    <style
       id="style1">
      @import url('https://fonts.googleapis.com/css2?family=Montserrat:wght@400;700&amp;display=swap');
      
      .bg-white { fill: #FFFFFF; }
      .brand-blue { fill: #004AAD; }
      .brand-green { fill: #00C897; }
      .text-primary { 
        fill: #1A1A1A; 
        font-family: 'Montserrat', sans-serif, Arial; 
        font-weight: 700; 
        font-size: 42px; 
        text-transform: uppercase;
      }
      .text-secondary { 
        fill: #555555; 
        font-family: 'Montserrat', sans-serif, Arial; 
        font-weight: 400; 
        font-size: 15px; 
        letter-spacing: 8.5px; 
        text-transform: uppercase;
      }
    </style>
  </defs>
  <g
     id="Isotipo"
     transform="translate(-10,-2.5870415)">
    <path
       class="brand-blue"
       d="M 55.470958,2.5902668 C 35.125589,2.354788 10,15 10,45 c 0,30 12,50 22,60 6,5 13,3 16,-5 3,-8 5,-18 7,-18 2,0 4,10 7,18 3,8 10,10 16,5 C 88,95 100,75 100,45 100,15 85.468949,2.9374658 55.470958,2.5902668 Z"
       id="path1"
       sodipodi:nodetypes="sscssscss" />
    <path
       class="brand-green"
       d="m 32,55 c 10,17 36,17 46,0 1,-2 0,-4 -2,-3 -8,6 -34,6 -42,0 -2,-1 -3,1 -2,3 z"
       id="path2" />
  </g>
</svg>
